<?xml version="1.0" encoding="UTF-8"?>
<!DOCTYPE svg PUBLIC "-//W3C//DTD SVG 1.1//EN" "http://www.w3.org/Graphics/SVG/1.1/DTD/svg11.dtd">
<svg xmlns="http://www.w3.org/2000/svg" version="1.1" width="130px" height="130px" style="shape-rendering:geometricPrecision; text-rendering:geometricPrecision; image-rendering:optimizeQuality; fill-rule:evenodd; clip-rule:evenodd" xmlns:xlink="http://www.w3.org/1999/xlink">
<g><path style="opacity:1" fill="#f3f3f3" d="M -0.5,-0.5 C 15.5,-0.5 31.5,-0.5 47.5,-0.5C 47.5,0.166667 47.5,0.833333 47.5,1.5C 37.8676,4.95144 29.701,10.6181 23,18.5C 21.9505,17.4829 20.7839,17.3162 19.5,18C 18.9654,21.5385 17.6321,24.7052 15.5,27.5C 15.685,28.5837 16.0183,29.5837 16.5,30.5C 16.6677,41.0849 16.3344,51.7516 15.5,62.5C 10.2555,61.5794 8.25549,63.7461 9.5,69C 8.73682,74.4023 11.0702,77.2356 16.5,77.5C 16.5,78.8333 17.1667,79.5 18.5,79.5C 16.7025,84.7068 14.3692,89.7068 11.5,94.5C 7.41839,95.3176 3.41839,96.3176 -0.5,97.5C -0.5,64.8333 -0.5,32.1667 -0.5,-0.5 Z"/></g>
<g><path style="opacity:1" fill="#f0eaed" d="M 79.5,-0.5 C 96.1667,-0.5 112.833,-0.5 129.5,-0.5C 129.5,10.1667 129.5,20.8333 129.5,31.5C 125.649,32.0291 122.149,31.3625 119,29.5C 117.804,35.4187 117.138,41.4187 117,47.5C 115.864,50.0964 115.031,52.763 114.5,55.5C 113.041,55.4326 111.708,55.7659 110.5,56.5C 110.5,55.1667 110.5,53.8333 110.5,52.5C 112.888,51.7813 114.388,50.1146 115,47.5C 115.497,44.854 115.664,42.1873 115.5,39.5C 116.518,36.6232 116.351,33.6232 115,30.5C 112.333,25.8333 109.667,21.1667 107,16.5C 106.329,15.7476 105.496,15.4142 104.5,15.5C 99.9606,11.3063 94.7939,7.97297 89,5.5C 88.3333,7.5 88.3333,9.5 89,11.5C 91.023,13.5397 92.6897,15.873 94,18.5C 94.3333,18.1667 94.6667,17.8333 95,17.5C 95.4696,18.5768 95.3029,19.5768 94.5,20.5C 93.1667,19.8333 92.1667,18.8333 91.5,17.5C 89.3842,14.2111 87.0509,11.0444 84.5,8C 81.322,7.15612 78.6554,5.48945 76.5,3C 72.853,2.2255 69.1864,1.55884 65.5,1C 70.9953,0.0687656 76.3286,0.568766 81.5,2.5C 82.1667,2.33333 82.8333,2.16667 83.5,2C 82.1416,1.06564 80.8083,0.232305 79.5,-0.5 Z"/></g>
<g><path style="opacity:1" fill="#b3acbe" d="M 47.5,-0.5 C 58.1667,-0.5 68.8333,-0.5 79.5,-0.5C 80.8083,0.232305 82.1416,1.06564 83.5,2C 82.8333,2.16667 82.1667,2.33333 81.5,2.5C 76.3286,0.568766 70.9953,0.0687656 65.5,1C 69.1864,1.55884 72.853,2.2255 76.5,3C 78.6554,5.48945 81.322,7.15612 84.5,8C 87.0509,11.0444 89.3842,14.2111 91.5,17.5C 86.5428,14.1846 81.2095,11.8512 75.5,10.5C 69.0627,8.96114 62.3961,8.29447 55.5,8.5C 51.6478,7.81257 49.9811,5.47923 50.5,1.5C 49.5,1.5 48.5,1.5 47.5,1.5C 47.5,0.833333 47.5,0.166667 47.5,-0.5 Z"/></g>
<g><path style="opacity:1" fill="#a8a5b3" d="M 47.5,1.5 C 48.5,1.5 49.5,1.5 50.5,1.5C 49.9811,5.47923 51.6478,7.81257 55.5,8.5C 51.2504,9.0157 47.2504,10.349 43.5,12.5C 33.1907,16.1507 25.524,22.8174 20.5,32.5C 19.7611,32.631 19.0944,32.4643 18.5,32C 19.5762,30.2739 19.7429,28.4406 19,26.5C 18.0656,27.8584 17.2323,29.1917 16.5,30.5C 16.0183,29.5837 15.685,28.5837 15.5,27.5C 17.6321,24.7052 18.9654,21.5385 19.5,18C 20.7839,17.3162 21.9505,17.4829 23,18.5C 29.701,10.6181 37.8676,4.95144 47.5,1.5 Z"/></g>
<g><path style="opacity:1" fill="#5c5769" d="M 55.5,8.5 C 62.3961,8.29447 69.0627,8.96114 75.5,10.5C 73.901,10.2322 72.5676,10.5655 71.5,11.5C 70.1667,11.5 68.8333,11.5 67.5,11.5C 60.9443,10.1541 54.2776,10.3208 47.5,12C 49.7416,13.0074 49.4082,13.8407 46.5,14.5C 46.1583,13.6618 45.4916,13.3284 44.5,13.5C 44.5,12.8333 44.1667,12.5 43.5,12.5C 47.2504,10.349 51.2504,9.0157 55.5,8.5 Z"/></g>
<g><path style="opacity:1" fill="#a9a5b6" d="M 67.5,11.5 C 66.448,11.3505 65.448,11.5172 64.5,12C 65.8333,12.3333 67.1667,12.6667 68.5,13C 66.4233,13.1922 64.4233,13.6922 62.5,14.5C 64.5,15.8333 66.5,17.1667 68.5,18.5C 67.6667,18.8333 66.8333,19.1667 66,19.5C 59.5578,17.0198 53.0578,16.8532 46.5,19C 45.224,21.1662 45.5574,23.1662 47.5,25C 46.7299,27.9781 45.0632,28.8114 42.5,27.5C 42.2155,25.2406 41.2155,23.5739 39.5,22.5C 40.9526,21.1751 40.6192,20.3418 38.5,20C 40.5689,17.1642 43.2356,15.3309 46.5,14.5C 49.4082,13.8407 49.7416,13.0074 47.5,12C 54.2776,10.3208 60.9443,10.1541 67.5,11.5 Z"/></g>
<g><path style="opacity:1" fill="#f9f6f8" d="M 104.5,15.5 C 107.077,20.5941 109.911,25.5941 113,30.5C 114.145,33.4318 114.978,36.4318 115.5,39.5C 115.664,42.1873 115.497,44.854 115,47.5C 114.388,50.1146 112.888,51.7813 110.5,52.5C 109.385,48.9544 108.385,45.2877 107.5,41.5C 106.213,36.9269 104.38,32.5936 102,28.5C 101.292,27.6195 100.458,26.9528 99.5,26.5C 99.0432,24.2273 97.7099,22.894 95.5,22.5C 95.1667,21.8333 94.8333,21.1667 94.5,20.5C 95.3029,19.5768 95.4696,18.5768 95,17.5C 94.6667,17.8333 94.3333,18.1667 94,18.5C 92.6897,15.873 91.023,13.5397 89,11.5C 88.3333,9.5 88.3333,7.5 89,5.5C 94.7939,7.97297 99.9606,11.3063 104.5,15.5 Z"/></g>
<g><path style="opacity:1" fill="#4a4154" d="M 71.5,11.5 C 72.5676,10.5655 73.901,10.2322 75.5,10.5C 81.2095,11.8512 86.5428,14.1846 91.5,17.5C 92.1667,18.8333 93.1667,19.8333 94.5,20.5C 94.8333,21.1667 95.1667,21.8333 95.5,22.5C 95.5,24.5 95.5,26.5 95.5,28.5C 95.5,28.8333 95.5,29.1667 95.5,29.5C 89.3007,21.0703 81.3007,15.0703 71.5,11.5 Z"/></g>
<g><path style="opacity:1" fill="#666666" d="M 95.5,22.5 C 97.7099,22.894 99.0432,24.2273 99.5,26.5C 99.9195,28.0936 100.586,29.5936 101.5,31C 101.257,31.9021 100.923,32.7354 100.5,33.5C 99.4415,32.3998 98.6082,31.0664 98,29.5C 97.3292,28.7476 96.4959,28.4142 95.5,28.5C 95.5,26.5 95.5,24.5 95.5,22.5 Z"/></g>
<g><path style="opacity:1" fill="#444153" d="M 43.5,12.5 C 44.1667,12.5 44.5,12.8333 44.5,13.5C 33.8306,18.5051 25.8306,26.1718 20.5,36.5C 19.3744,35.1916 19.3744,33.8583 20.5,32.5C 25.524,22.8174 33.1907,16.1507 43.5,12.5 Z"/></g>
<g><path style="opacity:1" fill="#beb8c6" d="M 67.5,11.5 C 68.8333,11.5 70.1667,11.5 71.5,11.5C 81.3007,15.0703 89.3007,21.0703 95.5,29.5C 97.2428,31.9243 98.5762,34.591 99.5,37.5C 98.6236,37.3691 97.9569,37.7025 97.5,38.5C 98.6416,41.3992 99.3083,44.3992 99.5,47.5C 97.4025,41.8687 94.7358,36.5354 91.5,31.5C 90.5294,29.5168 89.5294,27.5168 88.5,25.5C 85.5577,21.3281 82.391,20.9947 79,24.5C 78.4387,23.9781 77.772,23.6448 77,23.5C 74.3466,25.7766 71.6799,27.1099 69,27.5C 67.2443,26.1041 65.7443,24.4374 64.5,22.5C 63.5159,25.4281 63.1826,28.4281 63.5,31.5C 57.8333,31.5 52.1667,31.5 46.5,31.5C 46.4249,34.2062 46.0916,36.8728 45.5,39.5C 44.5,39.5 43.5,39.5 42.5,39.5C 42.3205,37.0459 42.9872,34.8792 44.5,33C 43.7299,30.0219 42.0632,29.1886 39.5,30.5C 38.9479,32.3334 38.1145,34.0001 37,35.5C 36.6667,42.1667 36.3333,48.8333 36,55.5C 35.2291,58.1897 34.3958,60.8564 33.5,63.5C 32.7474,59.1885 32.5807,54.8551 33,50.5C 31.014,53.9558 29.514,57.6225 28.5,61.5C 27.5344,59.604 27.2011,57.604 27.5,55.5C 24.9505,55.5608 23.4505,56.8941 23,59.5C 22.5006,65.1569 22.3339,70.8236 22.5,76.5C 21.6618,76.1583 21.3284,75.4916 21.5,74.5C 21.5858,73.5041 21.2524,72.6708 20.5,72C 21.1061,65.5022 21.9394,59.0022 23,52.5C 24.4141,48.5203 27.2474,46.8536 31.5,47.5C 31.3955,41.5964 32.3955,35.9297 34.5,30.5C 37.2048,30.6198 37.8715,29.6198 36.5,27.5C 37.376,26.7492 38.376,26.2492 39.5,26C 38.7476,25.3292 38.4142,24.4959 38.5,23.5C 39.1667,23.5 39.5,23.1667 39.5,22.5C 41.2155,23.5739 42.2155,25.2406 42.5,27.5C 45.0632,28.8114 46.7299,27.9781 47.5,25C 45.5574,23.1662 45.224,21.1662 46.5,19C 53.0578,16.8532 59.5578,17.0198 66,19.5C 66.8333,19.1667 67.6667,18.8333 68.5,18.5C 66.5,17.1667 64.5,15.8333 62.5,14.5C 64.4233,13.6922 66.4233,13.1922 68.5,13C 67.1667,12.6667 65.8333,12.3333 64.5,12C 65.448,11.5172 66.448,11.3505 67.5,11.5 Z"/></g>
<g><path style="opacity:1" fill="#afadae" d="M 104.5,15.5 C 105.496,15.4142 106.329,15.7476 107,16.5C 109.667,21.1667 112.333,25.8333 115,30.5C 116.351,33.6232 116.518,36.6232 115.5,39.5C 114.978,36.4318 114.145,33.4318 113,30.5C 109.911,25.5941 107.077,20.5941 104.5,15.5 Z"/></g>
<g><path style="opacity:1" fill="#938d8f" d="M 99.5,26.5 C 100.458,26.9528 101.292,27.6195 102,28.5C 104.38,32.5936 106.213,36.9269 107.5,41.5C 105.902,43.8567 104.902,46.5234 104.5,49.5C 103.373,44.1177 102.039,38.7843 100.5,33.5C 100.923,32.7354 101.257,31.9021 101.5,31C 100.586,29.5936 99.9195,28.0936 99.5,26.5 Z"/></g>
<g><path style="opacity:1" fill="#faf4f5" d="M 91.5,31.5 C 94.7358,36.5354 97.4025,41.8687 99.5,47.5C 99.154,50.6021 99.8207,53.4355 101.5,56C 100.695,60.7488 100.195,65.5821 100,70.5C 99.6667,70.8333 99.3333,71.1667 99,71.5C 98.6667,70.5 98.3333,69.5 98,68.5C 96.7099,73.0108 95.8766,77.6774 95.5,82.5C 91.8287,75.4457 90.162,67.7791 90.5,59.5C 90.1016,55.2393 89.1016,51.2393 87.5,47.5C 86.6363,41.7669 84.6363,36.4336 81.5,31.5C 81.8333,30.8333 82.1667,30.1667 82.5,29.5C 85.2123,31.2603 88.2123,31.927 91.5,31.5 Z"/></g>
<g><path style="opacity:1" fill="#f6f5f5" d="M 129.5,31.5 C 129.5,46.1667 129.5,60.8333 129.5,75.5C 127.396,75.2011 125.396,75.5344 123.5,76.5C 124.711,77.7202 124.711,78.8869 123.5,80C 121.866,80.4935 120.199,80.6602 118.5,80.5C 118.551,78.4305 117.885,76.5971 116.5,75C 117.73,72.2467 118.73,69.4134 119.5,66.5C 119.154,65.3044 118.654,65.3044 118,66.5C 117.667,65.5 117.333,64.5 117,63.5C 116.583,64.756 115.75,65.4226 114.5,65.5C 113.92,63.2512 112.587,61.5846 110.5,60.5C 110.5,59.1667 110.5,57.8333 110.5,56.5C 111.708,55.7659 113.041,55.4326 114.5,55.5C 115.031,52.763 115.864,50.0964 117,47.5C 117.138,41.4187 117.804,35.4187 119,29.5C 122.149,31.3625 125.649,32.0291 129.5,31.5 Z"/></g>
<g><path style="opacity:1" fill="#e1d5df" d="M 88.5,25.5 C 89.5294,27.5168 90.5294,29.5168 91.5,31.5C 88.2123,31.927 85.2123,31.2603 82.5,29.5C 82.1667,30.1667 81.8333,30.8333 81.5,31.5C 84.6363,36.4336 86.6363,41.7669 87.5,47.5C 84.6305,44.7505 82.6305,41.4171 81.5,37.5C 80.1166,40.0756 79.2833,39.7423 79,36.5C 78.7508,37.624 78.2508,38.624 77.5,39.5C 76.8524,37.8508 75.8524,36.5175 74.5,35.5C 73.9349,39.4861 74.2682,43.4861 75.5,47.5C 71.5,47.5 67.5,47.5 63.5,47.5C 63.5,52.8333 63.5,58.1667 63.5,63.5C 58.5,63.5 53.5,63.5 48.5,63.5C 45.7657,56.8565 44.9323,49.8565 46,42.5C 46.3333,43.1667 46.6667,43.8333 47,44.5C 47.8138,38.2683 48.8138,38.6016 50,45.5C 51.9619,42.3387 53.6285,39.0054 55,35.5C 54.7353,40.2091 56.2353,44.2091 59.5,47.5C 61.5133,44.3307 63.68,41.3307 66,38.5C 67.4127,36.3476 68.2461,34.0143 68.5,31.5C 71.5184,31.6646 74.5184,31.498 77.5,31C 78.428,30.6121 79.0946,29.9454 79.5,29C 78.8132,27.8382 78.6466,26.6716 79,25.5C 80.0195,26.6872 81.1861,27.6872 82.5,28.5C 83.3857,27.675 83.719,26.675 83.5,25.5C 85.1667,25.5 86.8333,25.5 88.5,25.5 Z"/></g>
<g><path style="opacity:1" fill="#848190" d="M 44.5,13.5 C 45.4916,13.3284 46.1583,13.6618 46.5,14.5C 43.2356,15.3309 40.5689,17.1642 38.5,20C 40.6192,20.3418 40.9526,21.1751 39.5,22.5C 39.5,23.1667 39.1667,23.5 38.5,23.5C 36.8546,24.4787 35.5213,25.812 34.5,27.5C 33.5224,27.0233 32.6891,26.3567 32,25.5C 27.9274,31.242 24.2608,37.242 21,43.5C 19.7831,50.1346 18.7831,56.8013 18,63.5C 17.3292,62.7476 16.4959,62.4142 15.5,62.5C 16.3344,51.7516 16.6677,41.0849 16.5,30.5C 17.2323,29.1917 18.0656,27.8584 19,26.5C 19.7429,28.4406 19.5762,30.2739 18.5,32C 19.0944,32.4643 19.7611,32.631 20.5,32.5C 19.3744,33.8583 19.3744,35.1916 20.5,36.5C 25.8306,26.1718 33.8306,18.5051 44.5,13.5 Z"/></g>
<g><path style="opacity:1" fill="#706a6c" d="M 107.5,41.5 C 108.385,45.2877 109.385,48.9544 110.5,52.5C 110.5,53.8333 110.5,55.1667 110.5,56.5C 110.5,57.8333 110.5,59.1667 110.5,60.5C 110.5,61.5 110.5,62.5 110.5,63.5C 106.689,62.5462 105.689,60.2129 107.5,56.5C 108.298,58.0777 108.798,59.7444 109,61.5C 110.023,57.0305 108.689,54.3638 105,53.5C 104.51,52.2068 104.343,50.8734 104.5,49.5C 104.902,46.5234 105.902,43.8567 107.5,41.5 Z"/></g>
<g><path style="opacity:1" fill="#564e51" d="M 95.5,28.5 C 96.4959,28.4142 97.3292,28.7476 98,29.5C 98.6082,31.0664 99.4415,32.3998 100.5,33.5C 102.039,38.7843 103.373,44.1177 104.5,49.5C 104.343,50.8734 104.51,52.2068 105,53.5C 108.689,54.3638 110.023,57.0305 109,61.5C 108.798,59.7444 108.298,58.0777 107.5,56.5C 105.689,60.2129 106.689,62.5462 110.5,63.5C 111.239,63.369 111.906,63.5357 112.5,64C 108.333,65.5 105.5,68.3333 104,72.5C 103.608,68.4724 103.108,64.4724 102.5,60.5C 103.977,52.6691 102.977,45.0024 99.5,37.5C 98.5762,34.591 97.2428,31.9243 95.5,29.5C 95.5,29.1667 95.5,28.8333 95.5,28.5 Z"/></g>
<g><path style="opacity:1" fill="#f5e5ea" d="M 87.5,47.5 C 89.1016,51.2393 90.1016,55.2393 90.5,59.5C 89.8826,59.3893 89.3826,59.056 89,58.5C 88.5045,60.4727 88.3379,62.4727 88.5,64.5C 86.4508,64.7058 86.1175,65.5391 87.5,67C 86.8333,67.1667 86.1667,67.3333 85.5,67.5C 82.0145,65.9064 78.3479,65.2397 74.5,65.5C 74.7004,61.1648 74.7004,56.9981 74.5,53C 74.8499,51.7425 75.5165,51.4092 76.5,52C 77.0712,53.2051 77.7379,54.3717 78.5,55.5C 79.241,52.2937 78.241,49.6271 75.5,47.5C 74.2682,43.4861 73.9349,39.4861 74.5,35.5C 75.8524,36.5175 76.8524,37.8508 77.5,39.5C 78.2508,38.624 78.7508,37.624 79,36.5C 79.2833,39.7423 80.1166,40.0756 81.5,37.5C 82.6305,41.4171 84.6305,44.7505 87.5,47.5 Z"/></g>
<g><path style="opacity:1" fill="#aba8b8" d="M 38.5,23.5 C 38.4142,24.4959 38.7476,25.3292 39.5,26C 38.376,26.2492 37.376,26.7492 36.5,27.5C 37.8715,29.6198 37.2048,30.6198 34.5,30.5C 32.3955,35.9297 31.3955,41.5964 31.5,47.5C 27.2474,46.8536 24.4141,48.5203 23,52.5C 21.9394,59.0022 21.1061,65.5022 20.5,72C 21.2524,72.6708 21.5858,73.5041 21.5,74.5C 20.5028,74.4701 19.8361,74.9701 19.5,76C 19.9891,77.1385 20.3225,78.3052 20.5,79.5C 19.8333,79.5 19.1667,79.5 18.5,79.5C 17.1667,79.5 16.5,78.8333 16.5,77.5C 16.7787,72.4053 16.4454,67.4053 15.5,62.5C 16.4959,62.4142 17.3292,62.7476 18,63.5C 18.7831,56.8013 19.7831,50.1346 21,43.5C 24.2608,37.242 27.9274,31.242 32,25.5C 32.6891,26.3567 33.5224,27.0233 34.5,27.5C 35.5213,25.812 36.8546,24.4787 38.5,23.5 Z"/></g>
<g><path style="opacity:1" fill="#e7d2d2" d="M 75.5,47.5 C 78.241,49.6271 79.241,52.2937 78.5,55.5C 77.7379,54.3717 77.0712,53.2051 76.5,52C 75.5165,51.4092 74.8499,51.7425 74.5,53C 74.7004,56.9981 74.7004,61.1648 74.5,65.5C 78.3479,65.2397 82.0145,65.9064 85.5,67.5C 86.1667,67.3333 86.8333,67.1667 87.5,67C 86.1175,65.5391 86.4508,64.7058 88.5,64.5C 88.6602,66.1992 88.4935,67.8659 88,69.5C 85.9592,68.5769 83.7925,68.2436 81.5,68.5C 80.2502,68.4226 79.4169,67.756 79,66.5C 76.7393,68.0795 74.5727,69.7462 72.5,71.5C 72.1788,73.0481 71.1788,73.7148 69.5,73.5C 69.822,75.7224 69.1554,77.5557 67.5,79C 62.9132,79.7991 58.4132,79.6324 54,78.5C 53.3615,81.5358 53.5282,84.5358 54.5,87.5C 53.238,90.022 52.5713,92.6887 52.5,95.5C 50.5,95.5 48.5,95.5 46.5,95.5C 45.8333,95.5 45.1667,95.5 44.5,95.5C 44.1667,95.5 43.8333,95.5 43.5,95.5C 42.7729,93.0462 41.7729,90.7128 40.5,88.5C 40.1667,87.5 39.5,86.8333 38.5,86.5C 38.5,85.5 38.5,84.5 38.5,83.5C 41.9983,83.4347 42.4983,82.1014 40,79.5C 39.6012,79.7284 39.4346,80.0618 39.5,80.5C 37.8958,79.713 37.2291,78.3797 37.5,76.5C 38.8333,76.5 40.1667,76.5 41.5,76.5C 41.2627,77.791 41.596,78.791 42.5,79.5C 42.5,80.1667 42.8333,80.5 43.5,80.5C 44.9114,84.2965 45.9114,84.2965 46.5,80.5C 48.1439,80.2865 49.6439,80.6198 51,81.5C 52.5458,80.4971 52.7125,79.4971 51.5,78.5C 51.369,77.7611 51.5357,77.0944 52,76.5C 52.7175,77.4506 53.5509,77.6172 54.5,77C 52.1671,75.7574 51.5004,74.0907 52.5,72C 51.2863,69.0742 49.9529,66.2409 48.5,63.5C 53.5,63.5 58.5,63.5 63.5,63.5C 63.5,58.1667 63.5,52.8333 63.5,47.5C 67.5,47.5 71.5,47.5 75.5,47.5 Z"/></g>
<g><path style="opacity:1" fill="#806966" d="M 81.5,68.5 C 82.9264,69.3412 84.2597,70.3412 85.5,71.5C 85.7852,73.288 85.4519,74.9547 84.5,76.5C 83.6143,75.675 83.281,74.675 83.5,73.5C 81.834,70.8362 79.5007,70.1695 76.5,71.5C 75.5713,72.6888 75.238,74.0222 75.5,75.5C 75.44,76.0431 75.1067,76.3764 74.5,76.5C 73.8302,74.7086 73.1635,73.0419 72.5,71.5C 74.5727,69.7462 76.7393,68.0795 79,66.5C 79.4169,67.756 80.2502,68.4226 81.5,68.5 Z"/></g>
<g><path style="opacity:1" fill="#e8e3e5" d="M 99.5,37.5 C 102.977,45.0024 103.977,52.6691 102.5,60.5C 101.518,63.9619 101.185,67.6286 101.5,71.5C 99.8535,75.629 98.5201,79.9623 97.5,84.5C 96.8333,83.8333 96.1667,83.1667 95.5,82.5C 95.8766,77.6774 96.7099,73.0108 98,68.5C 98.3333,69.5 98.6667,70.5 99,71.5C 99.3333,71.1667 99.6667,70.8333 100,70.5C 100.195,65.5821 100.695,60.7488 101.5,56C 99.8207,53.4355 99.154,50.6021 99.5,47.5C 99.3083,44.3992 98.6416,41.3992 97.5,38.5C 97.9569,37.7025 98.6236,37.3691 99.5,37.5 Z"/></g>
<g><path style="opacity:1" fill="#b7c1ca" d="M 15.5,62.5 C 16.4454,67.4053 16.7787,72.4053 16.5,77.5C 11.0702,77.2356 8.73682,74.4023 9.5,69C 8.25549,63.7461 10.2555,61.5794 15.5,62.5 Z"/></g>
<g><path style="opacity:1" fill="#b79c9b" d="M 83.5,73.5 C 81.2869,74.6053 79.1203,74.6053 77,73.5C 76.7216,74.4158 76.2216,75.0825 75.5,75.5C 75.238,74.0222 75.5713,72.6888 76.5,71.5C 79.5007,70.1695 81.834,70.8362 83.5,73.5 Z"/></g>
<g><path style="opacity:1" fill="#d3c8d0" d="M 88.5,25.5 C 86.8333,25.5 85.1667,25.5 83.5,25.5C 83.719,26.675 83.3857,27.675 82.5,28.5C 81.1861,27.6872 80.0195,26.6872 79,25.5C 78.6466,26.6716 78.8132,27.8382 79.5,29C 79.0946,29.9454 78.428,30.6121 77.5,31C 74.5184,31.498 71.5184,31.6646 68.5,31.5C 68.2461,34.0143 67.4127,36.3476 66,38.5C 63.68,41.3307 61.5133,44.3307 59.5,47.5C 56.2353,44.2091 54.7353,40.2091 55,35.5C 53.6285,39.0054 51.9619,42.3387 50,45.5C 48.8138,38.6016 47.8138,38.2683 47,44.5C 46.6667,43.8333 46.3333,43.1667 46,42.5C 44.9323,49.8565 45.7657,56.8565 48.5,63.5C 49.9529,66.2409 51.2863,69.0742 52.5,72C 51.5004,74.0907 52.1671,75.7574 54.5,77C 53.5509,77.6172 52.7175,77.4506 52,76.5C 51.5357,77.0944 51.369,77.7611 51.5,78.5C 50.0019,75.6691 47.6685,74.0025 44.5,73.5C 42.9397,73.4809 41.4397,73.1476 40,72.5C 38.9701,72.8361 38.4701,73.5028 38.5,74.5C 36.6064,75.0476 34.9397,76.0476 33.5,77.5C 35.3333,79.1667 37.1667,80.8333 39,82.5C 39.4643,81.9056 39.631,81.2389 39.5,80.5C 39.4346,80.0618 39.6012,79.7284 40,79.5C 42.4983,82.1014 41.9983,83.4347 38.5,83.5C 38.5,84.5 38.5,85.5 38.5,86.5C 37.02,84.1425 35.3534,81.8092 33.5,79.5C 32.4063,80.868 32.7397,82.0347 34.5,83C 33.5509,83.6172 32.7175,83.4506 32,82.5C 31.5078,83.549 31.6744,84.549 32.5,85.5C 32.1445,86.5223 31.4778,87.189 30.5,87.5C 29.1103,86.1007 28.1103,84.4341 27.5,82.5C 27.0874,80.1099 26.4207,77.7765 25.5,75.5C 24.3793,78.1369 24.3793,80.8035 25.5,83.5C 25.5613,85.721 24.8946,86.0544 23.5,84.5C 22.7347,81.9039 22.4013,79.2372 22.5,76.5C 22.3339,70.8236 22.5006,65.1569 23,59.5C 23.4505,56.8941 24.9505,55.5608 27.5,55.5C 27.2011,57.604 27.5344,59.604 28.5,61.5C 29.514,57.6225 31.014,53.9558 33,50.5C 32.5807,54.8551 32.7474,59.1885 33.5,63.5C 34.3958,60.8564 35.2291,58.1897 36,55.5C 36.3333,48.8333 36.6667,42.1667 37,35.5C 38.1145,34.0001 38.9479,32.3334 39.5,30.5C 42.0632,29.1886 43.7299,30.0219 44.5,33C 42.9872,34.8792 42.3205,37.0459 42.5,39.5C 43.5,39.5 44.5,39.5 45.5,39.5C 46.0916,36.8728 46.4249,34.2062 46.5,31.5C 52.1667,31.5 57.8333,31.5 63.5,31.5C 63.1826,28.4281 63.5159,25.4281 64.5,22.5C 65.7443,24.4374 67.2443,26.1041 69,27.5C 71.6799,27.1099 74.3466,25.7766 77,23.5C 77.772,23.6448 78.4387,23.9781 79,24.5C 82.391,20.9947 85.5577,21.3281 88.5,25.5 Z"/></g>
<g><path style="opacity:1" fill="#97898e" d="M 102.5,60.5 C 103.108,64.4724 103.608,68.4724 104,72.5C 105.5,68.3333 108.333,65.5 112.5,64C 111.906,63.5357 111.239,63.369 110.5,63.5C 110.5,62.5 110.5,61.5 110.5,60.5C 112.587,61.5846 113.92,63.2512 114.5,65.5C 116.219,72.0736 115.052,78.0736 111,83.5C 110.722,82.5842 110.222,81.9175 109.5,81.5C 109.631,80.6236 109.298,79.9569 108.5,79.5C 106.709,79.9619 105.709,81.1285 105.5,83C 107.461,85.8294 108.794,88.9961 109.5,92.5C 108.998,93.521 108.332,93.6877 107.5,93C 105.76,91.483 104.094,89.983 102.5,88.5C 103.283,86.6568 103.95,84.6568 104.5,82.5C 103.369,81.3961 102.535,81.7295 102,83.5C 101.5,82.5 101,81.5 100.5,80.5C 101.407,77.5788 101.74,74.5788 101.5,71.5C 101.185,67.6286 101.518,63.9619 102.5,60.5 Z"/></g>
<g><path style="opacity:1" fill="#6f5c62" d="M 44.5,73.5 C 46.2432,75.1261 46.7432,77.1261 46,79.5C 45.7508,78.376 45.2508,77.376 44.5,76.5C 43.9117,78.0116 43.5784,79.3449 43.5,80.5C 42.8333,80.5 42.5,80.1667 42.5,79.5C 42.5,78.1667 42.5,76.8333 42.5,75.5C 40.901,75.7678 39.5676,75.4345 38.5,74.5C 38.4701,73.5028 38.9701,72.8361 40,72.5C 41.4397,73.1476 42.9397,73.4809 44.5,73.5 Z"/></g>
<g><path style="opacity:1" fill="#ac9396" d="M 44.5,73.5 C 47.6685,74.0025 50.0019,75.6691 51.5,78.5C 52.7125,79.4971 52.5458,80.4971 51,81.5C 49.6439,80.6198 48.1439,80.2865 46.5,80.5C 45.9114,84.2965 44.9114,84.2965 43.5,80.5C 43.5784,79.3449 43.9117,78.0116 44.5,76.5C 45.2508,77.376 45.7508,78.376 46,79.5C 46.7432,77.1261 46.2432,75.1261 44.5,73.5 Z"/></g>
<g><path style="opacity:1" fill="#a49198" d="M 38.5,74.5 C 39.5676,75.4345 40.901,75.7678 42.5,75.5C 42.5,76.8333 42.5,78.1667 42.5,79.5C 41.596,78.791 41.2627,77.791 41.5,76.5C 40.1667,76.5 38.8333,76.5 37.5,76.5C 37.2291,78.3797 37.8958,79.713 39.5,80.5C 39.631,81.2389 39.4643,81.9056 39,82.5C 37.1667,80.8333 35.3333,79.1667 33.5,77.5C 34.9397,76.0476 36.6064,75.0476 38.5,74.5 Z"/></g>
<g><path style="opacity:1" fill="#756a6e" d="M 101.5,71.5 C 101.74,74.5788 101.407,77.5788 100.5,80.5C 101,81.5 101.5,82.5 102,83.5C 102.535,81.7295 103.369,81.3961 104.5,82.5C 103.95,84.6568 103.283,86.6568 102.5,88.5C 101.833,88.1667 101.167,87.8333 100.5,87.5C 100.5,86.5 100.5,85.5 100.5,84.5C 99.5,84.5 98.5,84.5 97.5,84.5C 98.5201,79.9623 99.8535,75.629 101.5,71.5 Z"/></g>
<g><path style="opacity:1" fill="#aea3ac" d="M 27.5,82.5 C 26.3773,84.688 26.3773,87.0213 27.5,89.5C 27.2252,91.8418 26.3919,91.8418 25,89.5C 24.3923,87.8455 23.8923,86.1789 23.5,84.5C 24.8946,86.0544 25.5613,85.721 25.5,83.5C 24.3793,80.8035 24.3793,78.1369 25.5,75.5C 26.4207,77.7765 27.0874,80.1099 27.5,82.5 Z"/></g>
<g><path style="opacity:1" fill="#b7a6b1" d="M 38.5,86.5 C 39.5,86.8333 40.1667,87.5 40.5,88.5C 39.4168,88.4606 38.4168,88.1272 37.5,87.5C 37.1667,88 36.8333,88.5 36.5,89C 37.2887,90.6255 38.2887,92.1255 39.5,93.5C 39.0431,94.2975 38.3764,94.6309 37.5,94.5C 34.4567,92.8243 32.1233,90.4909 30.5,87.5C 31.4778,87.189 32.1445,86.5223 32.5,85.5C 31.6744,84.549 31.5078,83.549 32,82.5C 32.7175,83.4506 33.5509,83.6172 34.5,83C 32.7397,82.0347 32.4063,80.868 33.5,79.5C 35.3534,81.8092 37.02,84.1425 38.5,86.5 Z"/></g>
<g><path style="opacity:1" fill="#594a4f" d="M 97.5,84.5 C 98.5,84.5 99.5,84.5 100.5,84.5C 100.5,85.5 100.5,86.5 100.5,87.5C 99.9033,87.7352 99.5699,88.2352 99.5,89C 99.9783,90.3026 100.645,91.4693 101.5,92.5C 100.597,94.6365 99.4307,96.6365 98,98.5C 98.1906,93.3381 95.6906,91.0048 90.5,91.5C 90.585,89.0712 91.585,87.0712 93.5,85.5C 94.1667,84.1667 94.8333,84.1667 95.5,85.5C 94.5721,86.7678 94.4054,88.1011 95,89.5C 96.0945,87.9221 96.9278,86.2554 97.5,84.5 Z"/></g>
<g><path style="opacity:1" fill="#43343f" d="M 27.5,82.5 C 28.1103,84.4341 29.1103,86.1007 30.5,87.5C 32.1233,90.4909 34.4567,92.8243 37.5,94.5C 37.2648,95.0967 36.7648,95.4301 36,95.5C 34.6667,94.8333 33.3333,94.1667 32,93.5C 31.0546,93.9054 30.3879,94.572 30,95.5C 29.7599,93.1484 28.9265,91.1484 27.5,89.5C 26.3773,87.0213 26.3773,84.688 27.5,82.5 Z"/></g>
<g><path style="opacity:1" fill="#6c5e69" d="M 21.5,74.5 C 21.3284,75.4916 21.6618,76.1583 22.5,76.5C 22.4013,79.2372 22.7347,81.9039 23.5,84.5C 23.8923,86.1789 24.3923,87.8455 25,89.5C 26.3919,91.8418 27.2252,91.8418 27.5,89.5C 28.9265,91.1484 29.7599,93.1484 30,95.5C 30.3879,94.572 31.0546,93.9054 32,93.5C 33.3333,94.1667 34.6667,94.8333 36,95.5C 36.7648,95.4301 37.2648,95.0967 37.5,94.5C 38.3764,94.6309 39.0431,94.2975 39.5,93.5C 38.2887,92.1255 37.2887,90.6255 36.5,89C 36.8333,88.5 37.1667,88 37.5,87.5C 38.4168,88.1272 39.4168,88.4606 40.5,88.5C 41.7729,90.7128 42.7729,93.0462 43.5,95.5C 42.5166,99.2984 42.1832,103.298 42.5,107.5C 42.81,110.713 42.4767,113.713 41.5,116.5C 41.5,116.167 41.5,115.833 41.5,115.5C 41.3309,109.477 40.8309,103.477 40,97.5C 36.5915,98.6219 33.0915,98.7886 29.5,98C 27.9675,95.9711 26.3008,94.1378 24.5,92.5C 22.7429,88.2334 21.4096,83.9 20.5,79.5C 20.3225,78.3052 19.9891,77.1385 19.5,76C 19.8361,74.9701 20.5028,74.4701 21.5,74.5 Z"/></g>
<g><path style="opacity:1" fill="#f6e3df" d="M 72.5,71.5 C 73.1635,73.0419 73.8302,74.7086 74.5,76.5C 75.1067,76.3764 75.44,76.0431 75.5,75.5C 76.2216,75.0825 76.7216,74.4158 77,73.5C 79.1203,74.6053 81.2869,74.6053 83.5,73.5C 83.281,74.675 83.6143,75.675 84.5,76.5C 85.4519,74.9547 85.7852,73.288 85.5,71.5C 87.1954,73.7324 88.3621,76.3991 89,79.5C 89.6595,82.0472 89.4929,84.5472 88.5,87C 83.6164,93.3099 77.9497,98.9765 71.5,104C 69.9656,104.923 68.299,105.423 66.5,105.5C 60.9659,104.282 55.6326,102.449 50.5,100C 48.6156,98.9513 47.2823,97.4513 46.5,95.5C 48.5,95.5 50.5,95.5 52.5,95.5C 52.5713,92.6887 53.238,90.022 54.5,87.5C 53.5282,84.5358 53.3615,81.5358 54,78.5C 58.4132,79.6324 62.9132,79.7991 67.5,79C 69.1554,77.5557 69.822,75.7224 69.5,73.5C 71.1788,73.7148 72.1788,73.0481 72.5,71.5 Z"/></g>
<g><path style="opacity:1" fill="#c4bbba" d="M 111.5,99.5 C 110.735,100.66 109.735,101.66 108.5,102.5C 108.167,102 107.833,101.5 107.5,101C 108.563,98.6072 109.897,96.4406 111.5,94.5C 112.265,93.3398 113.265,92.3398 114.5,91.5C 115.057,93.7175 115.057,96.0509 114.5,98.5C 113.209,98.2627 112.209,98.596 111.5,99.5 Z"/></g>
<g><path style="opacity:1" fill="#cbbec2" d="M 24.5,92.5 C 26.3008,94.1378 27.9675,95.9711 29.5,98C 33.0915,98.7886 36.5915,98.6219 40,97.5C 40.8309,103.477 41.3309,109.477 41.5,115.5C 39.9805,117.588 38.9805,119.922 38.5,122.5C 38.5983,119.752 37.5983,119.086 35.5,120.5C 35.7031,118.956 36.3698,117.622 37.5,116.5C 36.3112,115.571 34.9778,115.238 33.5,115.5C 33.7725,113.042 32.7725,111.375 30.5,110.5C 28.1443,112.69 25.6443,114.69 23,116.5C 22.4657,120.859 22.6324,125.192 23.5,129.5C 21.8333,129.5 20.1667,129.5 18.5,129.5C 19.5498,125.541 20.0498,121.541 20,117.5C 18.7741,120.763 17.6075,124.096 16.5,127.5C 15.4359,119.788 18.1026,113.621 24.5,109C 24.4424,103.506 24.4424,98.0062 24.5,92.5 Z"/></g>
<g><path style="opacity:1" fill="#d9cbd4" d="M 43.5,95.5 C 43.8333,95.5 44.1667,95.5 44.5,95.5C 44.5,96.8333 44.5,98.1667 44.5,99.5C 47.569,101.363 50.9024,102.697 54.5,103.5C 54.5,104.833 54.5,106.167 54.5,107.5C 54.2865,109.144 54.6198,110.644 55.5,112C 52.5248,112.044 49.5248,111.877 46.5,111.5C 45.0001,110.375 43.6668,109.041 42.5,107.5C 42.1832,103.298 42.5166,99.2984 43.5,95.5 Z"/></g>
<g><path style="opacity:1" fill="#f8f4f3" d="M 111.5,99.5 C 113.288,99.2148 114.955,99.5481 116.5,100.5C 117.5,102.167 118.833,103.5 120.5,104.5C 120.167,105.167 119.833,105.833 119.5,106.5C 119.846,107.696 120.346,107.696 121,106.5C 121.402,107.872 121.902,109.205 122.5,110.5C 121.754,111.736 121.421,113.07 121.5,114.5C 124.336,128.218 120.67,130.718 110.5,122C 111.252,121.329 111.586,120.496 111.5,119.5C 110.517,113.026 110.517,106.359 111.5,99.5 Z"/></g>
<g><path style="opacity:1" fill="#e5e1e7" d="M 18.5,79.5 C 19.1667,79.5 19.8333,79.5 20.5,79.5C 21.4096,83.9 22.7429,88.2334 24.5,92.5C 24.4424,98.0062 24.4424,103.506 24.5,109C 18.1026,113.621 15.4359,119.788 16.5,127.5C 17.6075,124.096 18.7741,120.763 20,117.5C 20.0498,121.541 19.5498,125.541 18.5,129.5C 12.1667,129.5 5.83333,129.5 -0.5,129.5C -0.5,118.833 -0.5,108.167 -0.5,97.5C 3.41839,96.3176 7.41839,95.3176 11.5,94.5C 14.3692,89.7068 16.7025,84.7068 18.5,79.5 Z"/></g>
<g><path style="opacity:1" fill="#e6e3e2" d="M 129.5,75.5 C 129.5,93.5 129.5,111.5 129.5,129.5C 128.167,129.5 126.833,129.5 125.5,129.5C 125.814,119.351 124.814,109.351 122.5,99.5C 120.892,98.4619 119.892,99.1286 119.5,101.5C 121.806,104.414 123.14,107.747 123.5,111.5C 123.36,113.03 122.693,114.03 121.5,114.5C 121.421,113.07 121.754,111.736 122.5,110.5C 121.902,109.205 121.402,107.872 121,106.5C 120.346,107.696 119.846,107.696 119.5,106.5C 119.833,105.833 120.167,105.167 120.5,104.5C 118.833,103.5 117.5,102.167 116.5,100.5C 114.955,99.5481 113.288,99.2148 111.5,99.5C 112.209,98.596 113.209,98.2627 114.5,98.5C 115.057,96.0509 115.057,93.7175 114.5,91.5C 113.265,92.3398 112.265,93.3398 111.5,94.5C 111.665,91.1501 111.498,87.8168 111,84.5C 110.667,84.8333 110.333,85.1667 110,85.5C 109.51,84.2068 109.343,82.8734 109.5,81.5C 110.222,81.9175 110.722,82.5842 111,83.5C 115.052,78.0736 116.219,72.0736 114.5,65.5C 115.75,65.4226 116.583,64.756 117,63.5C 117.333,64.5 117.667,65.5 118,66.5C 118.654,65.3044 119.154,65.3044 119.5,66.5C 118.73,69.4134 117.73,72.2467 116.5,75C 117.885,76.5971 118.551,78.4305 118.5,80.5C 120.199,80.6602 121.866,80.4935 123.5,80C 124.711,78.8869 124.711,77.7202 123.5,76.5C 125.396,75.5344 127.396,75.2011 129.5,75.5 Z"/></g>
<g><path style="opacity:1" fill="#f8f7f6" d="M 122.5,99.5 C 121.221,96.6052 120.221,93.6052 119.5,90.5C 119.667,89.5 119.833,88.5 120,87.5C 121.011,88.3366 122.178,88.67 123.5,88.5C 124.724,90.8197 126.058,93.153 127.5,95.5C 126.77,97.8783 125.104,99.2116 122.5,99.5 Z"/></g>
<g><path style="opacity:1" fill="#dec5c6" d="M 90.5,59.5 C 90.162,67.7791 91.8287,75.4457 95.5,82.5C 96.1667,83.1667 96.8333,83.8333 97.5,84.5C 96.9278,86.2554 96.0945,87.9221 95,89.5C 94.4054,88.1011 94.5721,86.7678 95.5,85.5C 94.8333,84.1667 94.1667,84.1667 93.5,85.5C 91.585,87.0712 90.585,89.0712 90.5,91.5C 95.6906,91.0048 98.1906,93.3381 98,98.5C 99.4307,96.6365 100.597,94.6365 101.5,92.5C 107.142,94.5717 107.809,97.7384 103.5,102C 94.1538,103.644 89.4871,109.31 89.5,119C 89.9987,122.49 90.332,125.99 90.5,129.5C 87.1667,129.5 83.8333,129.5 80.5,129.5C 79.7939,127.124 78.1273,125.79 75.5,125.5C 74.5946,124.298 74.5946,122.964 75.5,121.5C 77.7225,122.114 79.3892,123.448 80.5,125.5C 81.4287,124.311 81.762,122.978 81.5,121.5C 83.7224,121.178 85.5557,121.845 87,123.5C 87.3333,119.5 87.6667,115.5 88,111.5C 88.5359,109.131 89.7026,107.131 91.5,105.5C 92.4742,103.257 92.8076,100.924 92.5,98.5C 89.9009,98.4506 87.7342,97.4506 86,95.5C 83.9977,103.673 81.4977,111.673 78.5,119.5C 76.6203,119.229 75.287,119.896 74.5,121.5C 72.2341,121.859 70.4007,121.192 69,119.5C 68.6667,120.167 68.3333,120.833 68,121.5C 67.2917,120.619 66.4584,119.953 65.5,119.5C 61.1455,116.145 57.4789,112.145 54.5,107.5C 54.5,106.167 54.5,104.833 54.5,103.5C 50.9024,102.697 47.569,101.363 44.5,99.5C 44.5,98.1667 44.5,96.8333 44.5,95.5C 45.1667,95.5 45.8333,95.5 46.5,95.5C 47.2823,97.4513 48.6156,98.9513 50.5,100C 55.6326,102.449 60.9659,104.282 66.5,105.5C 68.299,105.423 69.9656,104.923 71.5,104C 77.9497,98.9765 83.6164,93.3099 88.5,87C 89.4929,84.5472 89.6595,82.0472 89,79.5C 88.3621,76.3991 87.1954,73.7324 85.5,71.5C 84.2597,70.3412 82.9264,69.3412 81.5,68.5C 83.7925,68.2436 85.9592,68.5769 88,69.5C 88.4935,67.8659 88.6602,66.1992 88.5,64.5C 88.3379,62.4727 88.5045,60.4727 89,58.5C 89.3826,59.056 89.8826,59.3893 90.5,59.5 Z"/></g>
<g><path style="opacity:1" fill="#fbf2f3" d="M 75.5,121.5 C 75.1667,121.5 74.8333,121.5 74.5,121.5C 75.287,119.896 76.6203,119.229 78.5,119.5C 81.4977,111.673 83.9977,103.673 86,95.5C 87.7342,97.4506 89.9009,98.4506 92.5,98.5C 92.8076,100.924 92.4742,103.257 91.5,105.5C 89.7026,107.131 88.5359,109.131 88,111.5C 87.6667,115.5 87.3333,119.5 87,123.5C 85.5557,121.845 83.7224,121.178 81.5,121.5C 81.762,122.978 81.4287,124.311 80.5,125.5C 79.3892,123.448 77.7225,122.114 75.5,121.5 Z"/></g>
<g><path style="opacity:1" fill="#f6e5e5" d="M 109.5,81.5 C 109.343,82.8734 109.51,84.2068 110,85.5C 110.333,85.1667 110.667,84.8333 111,84.5C 111.498,87.8168 111.665,91.1501 111.5,94.5C 109.897,96.4406 108.563,98.6072 107.5,101C 107.833,101.5 108.167,102 108.5,102.5C 109.735,101.66 110.735,100.66 111.5,99.5C 110.517,106.359 110.517,113.026 111.5,119.5C 110.068,117.673 108.401,116.006 106.5,114.5C 105.201,115.09 104.368,116.09 104,117.5C 100.991,113.327 99.8244,113.994 100.5,119.5C 103.286,121.279 106.286,122.612 109.5,123.5C 109.614,125.718 110.28,127.718 111.5,129.5C 104.5,129.5 97.5,129.5 90.5,129.5C 90.332,125.99 89.9987,122.49 89.5,119C 89.4871,109.31 94.1538,103.644 103.5,102C 107.809,97.7384 107.142,94.5717 101.5,92.5C 100.645,91.4693 99.9783,90.3026 99.5,89C 99.5699,88.2352 99.9033,87.7352 100.5,87.5C 101.167,87.8333 101.833,88.1667 102.5,88.5C 104.094,89.983 105.76,91.483 107.5,93C 108.332,93.6877 108.998,93.521 109.5,92.5C 108.794,88.9961 107.461,85.8294 105.5,83C 105.709,81.1285 106.709,79.9619 108.5,79.5C 109.298,79.9569 109.631,80.6236 109.5,81.5 Z"/></g>
<g><path style="opacity:1" fill="#ebdbdf" d="M 35.5,120.5 C 33.6565,122.279 32.9898,124.612 33.5,127.5C 31.8212,127.285 30.8212,127.952 30.5,129.5C 28.1667,129.5 25.8333,129.5 23.5,129.5C 22.6324,125.192 22.4657,120.859 23,116.5C 25.6443,114.69 28.1443,112.69 30.5,110.5C 32.7725,111.375 33.7725,113.042 33.5,115.5C 34.9778,115.238 36.3112,115.571 37.5,116.5C 36.3698,117.622 35.7031,118.956 35.5,120.5 Z"/></g>
<g><path style="opacity:1" fill="#9d868d" d="M 65.5,119.5 C 66.4584,119.953 67.2917,120.619 68,121.5C 68.3333,120.833 68.6667,120.167 69,119.5C 70.4007,121.192 72.2341,121.859 74.5,121.5C 74.8333,121.5 75.1667,121.5 75.5,121.5C 74.5946,122.964 74.5946,124.298 75.5,125.5C 73.9826,125.489 72.8159,124.823 72,123.5C 70.3745,123.854 68.5412,123.854 66.5,123.5C 65.7659,122.292 65.4326,120.959 65.5,119.5 Z"/></g>
<g><path style="opacity:1" fill="#bfadb9" d="M 42.5,107.5 C 43.6668,109.041 45.0001,110.375 46.5,111.5C 47.0037,115.507 47.1703,119.507 47,123.5C 46.8008,121.598 45.9675,120.098 44.5,119C 45.5536,117.612 45.7203,116.112 45,114.5C 44,118.833 43,123.167 42,127.5C 41.5014,123.848 41.3347,120.182 41.5,116.5C 42.4767,113.713 42.81,110.713 42.5,107.5 Z"/></g>
<g><path style="opacity:1" fill="#e3d7dc" d="M 54.5,107.5 C 57.4789,112.145 61.1455,116.145 65.5,119.5C 65.4326,120.959 65.7659,122.292 66.5,123.5C 61.5247,123.153 57.858,125.153 55.5,129.5C 48.8333,129.5 42.1667,129.5 35.5,129.5C 36.6343,127.161 37.6343,124.827 38.5,122.5C 38.9805,119.922 39.9805,117.588 41.5,115.5C 41.5,115.833 41.5,116.167 41.5,116.5C 41.3347,120.182 41.5014,123.848 42,127.5C 43,123.167 44,118.833 45,114.5C 45.7203,116.112 45.5536,117.612 44.5,119C 45.9675,120.098 46.8008,121.598 47,123.5C 47.1703,119.507 47.0037,115.507 46.5,111.5C 49.5248,111.877 52.5248,112.044 55.5,112C 54.6198,110.644 54.2865,109.144 54.5,107.5 Z"/></g>
<g><path style="opacity:1" fill="#aa9b9c" d="M 38.5,122.5 C 37.6343,124.827 36.6343,127.161 35.5,129.5C 33.8333,129.5 32.1667,129.5 30.5,129.5C 30.8212,127.952 31.8212,127.285 33.5,127.5C 32.9898,124.612 33.6565,122.279 35.5,120.5C 37.5983,119.086 38.5983,119.752 38.5,122.5 Z"/></g>
<g><path style="opacity:1" fill="#bfb6b6" d="M 122.5,99.5 C 124.814,109.351 125.814,119.351 125.5,129.5C 120.833,129.5 116.167,129.5 111.5,129.5C 110.28,127.718 109.614,125.718 109.5,123.5C 106.286,122.612 103.286,121.279 100.5,119.5C 99.8244,113.994 100.991,113.327 104,117.5C 104.368,116.09 105.201,115.09 106.5,114.5C 108.401,116.006 110.068,117.673 111.5,119.5C 111.586,120.496 111.252,121.329 110.5,122C 120.67,130.718 124.336,128.218 121.5,114.5C 122.693,114.03 123.36,113.03 123.5,111.5C 123.14,107.747 121.806,104.414 119.5,101.5C 119.892,99.1286 120.892,98.4619 122.5,99.5 Z"/></g>
<g><path style="opacity:1" fill="#f6f1f3" d="M 123.5,117.5 C 124.851,120.772 124.684,124.106 123,127.5C 122.341,124.112 122.508,120.779 123.5,117.5 Z"/></g>
<g><path style="opacity:1" fill="#58434e" d="M 66.5,123.5 C 68.5412,123.854 70.3745,123.854 72,123.5C 72.8159,124.823 73.9826,125.489 75.5,125.5C 78.1273,125.79 79.7939,127.124 80.5,129.5C 77.5,129.5 74.5,129.5 71.5,129.5C 70.7542,125.69 69.7542,125.69 68.5,129.5C 68.1667,129.5 67.8333,129.5 67.5,129.5C 67.2627,125.711 66.5961,125.711 65.5,129.5C 64.1667,129.5 62.8333,129.5 61.5,129.5C 63.1436,127.519 64.8103,125.519 66.5,123.5 Z"/></g>
<g><path style="opacity:1" fill="#c8b8c3" d="M 71.5,129.5 C 70.5,129.5 69.5,129.5 68.5,129.5C 69.7542,125.69 70.7542,125.69 71.5,129.5 Z"/></g>
<g><path style="opacity:1" fill="#6f626c" d="M 66.5,123.5 C 64.8103,125.519 63.1436,127.519 61.5,129.5C 59.5,129.5 57.5,129.5 55.5,129.5C 57.858,125.153 61.5247,123.153 66.5,123.5 Z"/></g>
<g><path style="opacity:1" fill="#c7bbc4" d="M 67.5,129.5 C 66.8333,129.5 66.1667,129.5 65.5,129.5C 66.5961,125.711 67.2627,125.711 67.5,129.5 Z"/></g>
</svg>
